# xmcd
#
# Track frame offsets:
#	180
#	16295
#	27232
#	41274
#	55441
#	78376
#	93707
#	107230
#	118176
#	131669
#	140312
#	150860
#	168757
#	182348
#	192121
#	211249
#	223342
#	234627
#	247844
#	275317
#
# Disc length: 3844
#
# Revision: 2
# Processed by: cddbd v1.5.1PL0 Copyright (c) Steve Scherf et al.
# Submitted via: ExactAudioCopy v0.90a11
# Normalized: r0:DSETVAR2,TDELIM( - ),TSWAP
#
DISCID=0b0f0214
DTITLE=Various Artist - A Soulful Oldies Christmas - K Earth 101 FM
DYEAR=1900
DGENRE=
TTITLE0=Donny Hathaway - This Christmas
TTITLE1=The Jackson Five - Silent Night
TTITLE2=Otis Redding - White Christmas
TTITLE3=The Manhattans - It's That Time of the Year
TTITLE4=Luther Vandross - At Christmas Time
TTITLE5=The Emotions - What Do the Lonely Do At Christmas
TTITLE6=Lou Rawls - The Little Drummer Boy
TTITLE7=Nancy Wilson - What Are You Doing New Year's Eve
TTITLE8=The Temptations - Rudolph the Red Nosed Reindeer
TTITLE9=Smokey Robinson and The Miracles - Santa Claus is Coming to Town
TTITLE10=The O'Jays - (Christmas Ain't Christmas) Without the One You Love
TTITLE11=Isaac Hayes - The Mistletoe and Me
TTITLE12=Diana Ross and The Supremes - Silver Bells
TTITLE13=Patti LaBelle and The Bluebells - Winter Wonderland
TTITLE14=The Temprees - It's Christmas Time Again (The Christmas Song)
TTITLE15=The Drifters - White Christmas
TTITLE16=The Staple Singers - Who Took the Merry Out of Christmas
TTITLE17=Jerry Butler - O Holy Night
TTITLE18=The Temptations - Silent Night
TTITLE19=The Orioles - What Are You Doing New Year's Eve
EXTD=
EXTT0=
EXTT1=
EXTT2=
EXTT3=
EXTT4=
EXTT5=
EXTT6=
EXTT7=
EXTT8=
EXTT9=
EXTT10=
EXTT11=
EXTT12=
EXTT13=
EXTT14=
EXTT15=
EXTT16=
EXTT17=
EXTT18=
EXTT19=
PLAYORDER=
